Puss in Boots (2011) 1080p MKV x264 AC3+DTS Multi Subs
.
[IMG]http://img37.imageshack.us/img37/7876/pib2012.jpg[/IMG]
.
Verenigde Staten
Avontuur / Animatie
90 minuten

geregisseerd door Chris Miller (I)
met de stemmen van Antonio Banderas, Zach Galifianakis en Salma Hayek

Puss in Boots, ÚÚn van de meest geliefde personages uit het Shrek-universum, gaat over de hilarische en moedige avonturen van Puss (Antonio Banderas) wanneer hij samen met het meesterbrein Humpty Dumpty (Zach Galifianakis) en de straatkat Kitty (Salma Hayek) op zoek gaat naar de befaamde Gans met de Gouden Eieren.

Momenteel te zien in 88 bioscopen
Vanaf 20 maart te huur
Vanaf 4 april te koop op Blu-Ray
. 
http://www.moviemeter.nl/film/75021
.
PLOT
.
A story about the events leading up to the sword fighting cat's meeting with Shrek and his friends. 
. 
http://www.imdb.com/title/tt0448694/
.
INFO
.
Source: HDChina
Heb Beide Vertalingen erin gedaan kun je kiezen.
Vertaald door SRT-Team (THANKS)
Vertaald door: GeronimoX (THANKS)
Controle: Goffini (THANKS)
Top gedaan erg netjes.
.
Format                           : Matroska
Format version                   : Version 2
File size                        : 8.29 GiB
Duration                         : 1h 30mn
Overall bit rate                 : 13.2 Mbps
Encoded date                     : UTC 2012-02-11 04:57:45
Writing application              : mkvmerge v5.2.0 ('I can't explain') built on Dec 18 2011 18:12:03
Writing library                  : libebml v1.2.3 + libmatroska v1.3.0

Video
ID                               : 1
Format                           : AVC
Format/Info                      : Advanced Video Codec
Format profile                   : High@L4.1
Format settings, CABAC           : Yes
Format settings, ReFrames        : 5 frames
Codec ID                         : V_MPEG4/ISO/AVC
Duration                         : 1h 30mn
Bit rate                         : 11.0 Mbps
Width                            : 1 920 pixels
Height                           : 814 pixels
Display aspect ratio             : 2.35:1
Frame rate                       : 23.976 fps
Color space                      : YUV
Chroma subsampling               : 4:2:0
Bit depth                        : 8 bits
Scan type                        : Progressive
Bits/(Pixel*Frame)               : 0.294
Stream size                      : 6.77 GiB (82%)
Writing library                  : x264 core 120 r2164 da19765
Encoding settings                : cabac=1 / ref=5 / deblock=1:-2:-2 / analyse=0x3:0x133 / me=umh / subme=10 / psy=1 / psy_rd=1.00:0.00 / mixed_ref=1 / me_range=64 / chroma_me=1 / trellis=2 / 8x8dct=1 / cqm=0 / deadzone=21,11 / fast_pskip=0 / chroma_qp_offset=-2 / threads=12 / sliced_threads=0 / nr=0 / decimate=0 / interlaced=0 / bluray_compat=0 / constrained_intra=0 / bframes=7 / b_pyramid=2 / b_adapt=2 / b_bias=0 / direct=3 / weightb=1 / open_gop=0 / weightp=2 / keyint=240 / keyint_min=24 / scenecut=40 / intra_refresh=0 / rc=2pass / mbtree=0 / bitrate=11000 / ratetol=1.0 / qcomp=0.70 / qpmin=0 / qpmax=69 / qpstep=4 / cplxblur=20.0 / qblur=0.5 / ip_ratio=1.45 / pb_ratio=1.20 / aq=1:1.30
Language                         : English
Default                          : Yes
Forced                           : No

Audio #1
ID                               : 2
Format                           : DTS
Format/Info                      : Digital Theater Systems
Codec ID                         : A_DTS
Duration                         : 1h 30mn
Bit rate mode                    : Constant
Bit rate                         : 1 510 Kbps
Channel(s)                       : 6 channels
Channel positions                : Front: L C R, Side: L R, LFE
Sampling rate                    : 48.0 KHz
Bit depth                        : 24 bits
Compression mode                 : Lossy
Stream size                      : 974 MiB (11%)
Title                            : DTS
Language                         : English
Default                          : Yes
Forced                           : No

Audio #2
ID                               : 3
Format                           : AC-3
Format/Info                      : Audio Coding 3
Mode extension                   : CM (complete main)
Codec ID                         : A_AC3
Duration                         : 1h 30mn
Bit rate mode                    : Constant
Bit rate                         : 640 Kbps
Channel(s)                       : 6 channels
Channel positions                : Front: L C R, Side: L R, LFE
Sampling rate                    : 48.0 KHz
Bit depth                        : 16 bits
Compression mode                 : Lossy
Stream size                      : 413 MiB (5%)
Title                            : AC3
Language                         : English
Default                          : No
Forced                           : No

Text #1
ID                               : 4
Format                           : UTF-8
Codec ID                         : S_TEXT/UTF8
Codec ID/Info                    : UTF-8 Plain Text
Title                            : Dutch by GeronimoX
Language                         : Dutch
Default                          : No
Forced                           : No

Text #2
ID                               : 5
Format                           : UTF-8
Codec ID                         : S_TEXT/UTF8
Codec ID/Info                    : UTF-8 Plain Text
Title                            : Dutch by SRT-Team
Language                         : Dutch
Default                          : No
Forced                           : No

Text #3
ID                               : 6
Format                           : UTF-8
Codec ID                         : S_TEXT/UTF8
Codec ID/Info                    : UTF-8 Plain Text
Language                         : Bulgarian
Default                          : No
Forced                           : No

Text #4
ID                               : 7
Format                           : UTF-8
Codec ID                         : S_TEXT/UTF8
Codec ID/Info                    : UTF-8 Plain Text
Title                            : FHI
Language                         : English
Default                          : No
Forced                           : No

Text #5
ID                               : 8
Format                           : UTF-8
Codec ID                         : S_TEXT/UTF8
Codec ID/Info                    : UTF-8 Plain Text
Title                            : Normal
Language                         : English
Default                          : No
Forced                           : No

Text #6
ID                               : 9
Format                           : UTF-8
Codec ID                         : S_TEXT/UTF8
Codec ID/Info                    : UTF-8 Plain Text
Language                         : Polish
Default                          : No
Forced                           : No

Text #7
ID                               : 10
Format                           : UTF-8
Codec ID                         : S_TEXT/UTF8
Codec ID/Info                    : UTF-8 Plain Text
Language                         : Portuguese
Default                          : No
Forced                           : No

Text #8
ID                               : 11
Format                           : UTF-8
Codec ID                         : S_TEXT/UTF8
Codec ID/Info                    : UTF-8 Plain Text
Language                         : Romanian
Default                          : No
Forced                           : No
.
Enjoy
